<svg xmlns="http://www.w3.org/2000/svg" width="21.172" height="40" viewBox="0 0 21.172 40">
  <g id="icon-app" transform="translate(-0.4)">
    <path id="패스_4" data-name="패스 4" d="M3,1A2,2,0,0,0,1,3V37a2,2,0,0,0,2,2H18.9a2,2,0,0,0,2-2V3a2,2,0,0,0-2-2H15.663V2H6.237V1Z" fill="#ffdb6e" fill-rule="evenodd" opacity="0.15"/>
    <path id="패스_5" data-name="패스 5" d="M8.509,35.674a.676.676,0,1,0,0,1.353Zm4.955,1.353a.676.676,0,1,0,0-1.353ZM.4,29.414a.676.676,0,0,0,1.353,0Zm1.353,2.973a.676.676,0,1,0-1.353,0ZM20.219,7.613a.676.676,0,1,0,1.353,0Zm1.353,2.973a.676.676,0,1,0-1.353,0ZM18.48,38.647H3.492V40H18.48ZM3.492,1.353H6.527V0H3.492Zm2.358.339H7.2V.676H5.85ZM7.493,3.335h6.986V1.982H7.493ZM6.527,1.353h8.919V0H6.527Zm8.919,0H18.48V0H15.445Zm.676.339V.676H14.769V1.692ZM8.509,37.027h4.955V35.674H8.509ZM1.753,29.414V3.092H.4V29.414Zm0,7.494V32.387H.4v4.521ZM20.219,3.092V7.613h1.353V3.092Zm0,7.494V36.908h1.353V10.586Zm-5.74-7.251a1.643,1.643,0,0,0,1.642-1.643H14.769a.29.29,0,0,1-.29.29ZM3.492,38.647a1.739,1.739,0,0,1-1.739-1.739H.4A3.092,3.092,0,0,0,3.492,40ZM18.48,40a3.092,3.092,0,0,0,3.092-3.092H20.219a1.739,1.739,0,0,1-1.739,1.739Zm0-38.647a1.739,1.739,0,0,1,1.739,1.739h1.353A3.092,3.092,0,0,0,18.48,0ZM5.85,1.692A1.643,1.643,0,0,0,7.493,3.335V1.982a.29.29,0,0,1-.29-.29ZM3.492,0A3.092,3.092,0,0,0,.4,3.092H1.753A1.739,1.739,0,0,1,3.492,1.353Z" fill="#ffdb6e"/>
  </g>
</svg>
