<svg xmlns="http://www.w3.org/2000/svg" width="40" height="40" viewBox="0 0 40 40">
  <g id="icon-design" transform="translate(-1 -1)">
    <path id="패스_1" data-name="패스 1" d="M40.638,19.814a.586.586,0,0,0-.64.128l-1.758,1.764V9.712a.588.588,0,0,0-.587-.589H33.141L34.779,7.48h0L36.357,5.9a1.8,1.8,0,0,0,0-2.54l-1.825-1.83a1.786,1.786,0,0,0-2.532,0L30.422,3.11,28.515,5.023l-4.086,4.1H6.2V3.3a.588.588,0,0,0-.587-.589A4.63,4.63,0,0,0,1,7.339V32.356a.592.592,0,0,0,.014.127A4.453,4.453,0,0,0,5.447,36.6h17.94l-3.379,3.39A.589.589,0,0,0,20.424,41H40.413A.588.588,0,0,0,41,40.411V20.358A.589.589,0,0,0,40.638,19.814ZM32.831,2.359a.615.615,0,0,1,.871,0l1.825,1.83a.62.62,0,0,1,0,.874L34.364,6.231l-2.7-2.7Zm-1.994,2,2.7,2.7L32.456,8.144l-2.7-2.7ZM18.4,21.76l-1.682.6-1.12-1.124.594-1.687Zm17.433,8.411-5.659,5.659a.1.1,0,0,0,.071.171H36V30.241A.1.1,0,0,0,35.829,30.171ZM16,18.5,19.5,22l13-13L29,5.5Z" fill="#ffdb6e" fill-rule="evenodd" opacity="0.15"/>
    <path id="패스_2" data-name="패스 2" d="M36.4,29.255a.586.586,0,0,0-.64.128l-6.416,6.437a.589.589,0,0,0,.415,1.005h6.416a.588.588,0,0,0,.587-.589V29.8A.589.589,0,0,0,36.4,29.255Zm-5.223,6.392,4.412-4.426v4.426Z" transform="translate(0 0)" fill="#ffdb6e"/>
    <path id="패스_3" data-name="패스 3" d="M40.638,19.814a.586.586,0,0,0-.64.128l-1.758,1.764V9.712a.588.588,0,0,0-.587-.589H33.141L34.779,7.48h0L36.357,5.9a1.8,1.8,0,0,0,0-2.54l-1.825-1.83a1.786,1.786,0,0,0-2.532,0L30.422,3.11,28.515,5.023l-4.086,4.1H6.2V3.3a.588.588,0,0,0-.587-.589A4.63,4.63,0,0,0,1,7.339V32.356a.592.592,0,0,0,.014.127A4.453,4.453,0,0,0,5.447,36.6h17.94l-3.379,3.39A.589.589,0,0,0,20.424,41H40.413A.588.588,0,0,0,41,40.411V20.358A.589.589,0,0,0,40.638,19.814ZM32.831,2.359a.615.615,0,0,1,.871,0l1.825,1.83a.62.62,0,0,1,0,.874L34.364,6.231l-2.7-2.7Zm-1.994,2,2.7,2.7L32.456,8.144l-2.7-2.7Zm8.988,22.617H38.743a.589.589,0,0,0,0,1.178h1.083v1.775H38.743a.589.589,0,0,0,0,1.178h1.083v1.775H38.743a.589.589,0,0,0,0,1.178h1.083v1.775H38.743a.589.589,0,0,0,0,1.178h1.083v2.809H21.842l5.93-5.949a.59.59,0,0,0,0-.833.58.58,0,0,0-.084-.07.586.586,0,0,0-.746.07l-2.379,2.387H5.447a3.259,3.259,0,0,1-3.27-3.178q.005-.168.026-.333v0q.01-.078.023-.155l0-.018q.012-.069.028-.137l.009-.038q.013-.058.029-.115l.017-.062c.009-.03.017-.06.027-.089s.02-.059.03-.088.014-.041.022-.061c.014-.039.029-.077.045-.115L2.449,31c.02-.047.041-.094.063-.14l0-.006a3.458,3.458,0,0,1,2.4-1.885l.009,0c.049-.01.1-.018.147-.026l.025,0c.045-.007.09-.012.135-.017l.038,0c.044,0,.087-.007.131-.01l.042,0q.086,0,.174,0a.588.588,0,0,0,.587-.589V24.042a.587.587,0,1,0-1.174,0V27.76a4.58,4.58,0,0,0-2.637,1.28c-.076.075-.149.153-.219.232V7.339a3.457,3.457,0,0,1,2.856-3.4V21.686a.587.587,0,1,0,1.174,0V10.3h17.05l-3.246,3.256a.588.588,0,0,0,.83.833l4.248-4.262h0L28.93,6.273l2.7,2.7-.316.317h0L19.47,21.171l-2.7-2.7,2.333-2.341a.588.588,0,1,0-.83-.833l-2.749,2.757a.6.6,0,0,0-.041.046l-.012.017-.024.034-.012.021-.018.034-.01.023c-.005.011-.01.023-.015.035l-.005.012-1.144,3.251-.78,2.216a.59.59,0,0,0-.023.09H11.492a.589.589,0,0,0,0,1.178H27.75a.589.589,0,0,0,0-1.178H16.085l3.58-1.268.009,0,.041-.017.016-.007.041-.023.013-.008c.014-.009.028-.019.042-.03l.01-.007a.59.59,0,0,0,.048-.043L31.967,10.3h5.1V22.884l-8.4,8.425a.59.59,0,0,0,0,.833.562.562,0,0,0,.045.04.585.585,0,0,0,.741,0,.563.563,0,0,0,.045-.04h0L39.826,21.78ZM18.4,21.76l-1.682.6-1.12-1.124.594-1.687Z" fill="#ffdb6e"/>
  </g>
</svg>
